<?xml version="1.0" encoding="UTF-8"?><!DOCTYPE svg PUBLIC "-//W3C//DTD SVG 1.1//EN" "http://www.w3.org/Graphics/SVG/1.1/DTD/svg11.dtd"><!-- Creator: CorelDRAW 2019 (64-Bit) --><svg width="35" height="35" viewBox="0 0 1167.4387822634 1186.292834891" xmlns="http://www.w3.org/2000/svg" xmlns:xlink="http://www.w3.org/1999/xlink" xml:space="preserve" version="1.1" style="shape-rendering:geometricPrecision; text-rendering:geometricPrecision; image-rendering:optimizeQuality; fill-rule:evenodd; clip-rule:evenodd">
 <defs xmlns="http://www.w3.org/2000/svg">
  <style type="text/css">
   <![CDATA[
    .fil1 {fill:#2C2C2E}
    .fil0 {fill:#6FB6E2}
    .fil2 {fill:#2C2C2E;fill-rule:nonzero}
   ]]>
  </style>
 </defs>
 <g xmlns="http://www.w3.org/2000/svg" id="Layer_x0020_1">
  <metadata id="CorelCorpID_0Corel-Layer"/>
  <g id="_1777053422144">
   <path class="fil0" d="M584.465 1100.59l-0.108 0.005 -0.566 0.006 -0.005 0 -0.006 0 -0.582 0.01 -0.005 0c-25.134,0 -44.542,-20.104 -45.004,-45.004 0,-2.79 -0.022,-5.552 -0.071,-8.293l-2.551 -31.991c-4.247,-39.784 -13.072,-83.565 -27.679,-119.765 -2.55,-6.33 -5.002,-12.284 -7.439,-17.994l0 -3.486c-7.042,-16.319 -14.932,-31.991 -23.47,-46.391 -7.836,-13.214 -30.131,-48.653 -39.816,-55.749l-130.005 124.827c-17.167,17.505 -45.259,17.505 -62.427,0l0 -0.005c-17.167,-17.505 -17.167,-46.141 0,-63.645l0.125 0.125 0.131 -0.131 128.079 -125.475c-26.901,-16.487 -47.837,-32.671 -75.544,-49.202 -63.074,-33.285 -133.098,-53.041 -209.854,-53.041l0 -0.006 -0.082 0 0 0.006 -0.397 -0.006 -0.098 0c-16.977,-0.158 -31.888,-9.625 -39.827,-23.497l-0.544 -0.963 0 -0.01 -0.517 -0.979 0 -0.011 -0.5 -0.99 0 -0.011 -0.468 -1.006 0 -0.011 -0.451 -1.017 0 -0.01 -0.424 -1.028 0 -0.011 -0.397 -1.044 0 -0.011 -0.375 -1.055 0 -0.011 -0.348 -1.066 0 -0.011 -0.327 -1.076 0 -0.011 -0.299 -1.088 0 -0.011 -0.266 -1.098 0 -0.011 -0.245 -1.104 0 -0.011 -0.217 -1.12 0 -0.011 -0.185 -1.125 0 -0.011 -0.163 -1.137 0 -0.011 -0.131 -1.142 0 -0.011 -0.103 -1.152 0 -0.011 -0.076 -1.159 0 -0.01 -0.044 -1.17 0 -0.01 -0.016 -1.175 0 -0.011 0 -0.011 0.016 -1.174 0 -0.011 0.044 -1.169 0 -0.011 0.076 -1.159 0 -0.01 0.103 -1.153 0 -0.011 0.131 -1.142 0 -0.011 0.163 -1.137 0 -0.01 0.185 -1.126 0 -0.011 0.217 -1.12 0 -0.011 0.245 -1.104 0 -0.011 0.266 -1.098 0 -0.011 0.299 -1.088 0 -0.011 0.327 -1.076 0 -0.011 0.348 -1.066 0 -0.011 0.375 -1.055 0 -0.011 0.397 -1.044 0 -0.011 0.424 -1.027 0 -0.011 0.451 -1.017 0 -0.011 0.468 -1.006 0 -0.011 0.5 -0.99 0 -0.011 0.517 -0.978 0 -0.011 0.544 -0.963c7.939,-13.872 22.823,-23.318 39.827,-23.497l0.098 0 0.397 -0.005 0 0.005 0.082 0 0 -0.005c76.756,0 146.78,-19.756 209.854,-53.042 27.707,-16.531 48.643,-32.715 75.544,-49.202l-128.079 -125.475 -0.131 -0.13 -0.125 0.125c-17.167,-17.505 -17.167,-46.141 0,-63.646l0 -0.005c17.168,-17.505 45.26,-17.505 62.427,0l130.005 124.827c8.624,-6.319 27.249,-35.107 36.755,-50.67l3.442 -5.726c12.948,-21.464 19.653,-41.731 29.941,-67.235 14.606,-36.2 23.432,-79.981 27.679,-119.765l3.209 -40.246 0 -0.027 0.005 -0.043 0.005 -0.218c0.066,-11.126 4.204,-21.328 11.018,-29.169l0.038 -0.038 0.174 -0.196c7.45,-8.597 18.075,-14.291 30.267,-15.21l0.055 0 1.104 -0.07 0.038 0 1.125 -0.044 0.022 0 1.153 -0.016 0.005 0 0.006 0 0.582 0.011 0.005 0 0.566 0.005 0.021 0 0.109 0.006c24.797,0.369 43.851,20.321 44.308,44.993 0,2.779 0.022,5.541 0.071,8.266l2.55 31.996c4.247,39.784 13.073,83.565 27.679,119.765 2.551,6.33 5.003,12.284 7.439,17.994l0 3.508c7.043,16.319 14.933,31.991 23.47,46.391 7.837,13.214 30.132,48.653 39.817,55.749l130.004 -124.827c17.168,-17.505 45.26,-17.505 62.428,0l0 0.005c17.167,17.505 17.167,46.141 0,63.646l-0.125 -0.126 -0.131 0.131 -128.079 125.475c26.798,16.428 47.674,32.546 75.223,49.012 63.156,33.388 133.288,53.21 210.175,53.21l0 0.005 0.082 0 0 -0.005 0.397 0.005 0.098 0c22.551,0.245 41.371,16.76 45.205,38.305l0.185 1.104 0 0.032 0.163 1.115 0 0.033 0.131 1.12 0 0.033 0.103 1.131 0 0.032 0.076 1.137 0 0.032 0.044 1.148 0 0.032 0.016 1.153 0 0.011 0 0.022 0 0.011 -0.016 1.153 0 0.032 -0.044 1.148 0 0.032 -0.076 1.137 0 0.032 -0.103 1.132 0 0.032 -0.131 1.12 0 0.033 -0.163 1.115 0 0.032 -0.185 1.104c-3.823,21.54 -22.665,38.071 -45.205,38.305l-0.098 0 -0.397 0.005 0 -0.005 -0.082 0 0 0.005c-76.887,0 -147.019,19.822 -210.175,53.211 -27.549,16.466 -48.425,32.584 -75.223,49.012l128.079 125.474 0.131 0.131 0.125 -0.125c17.167,17.504 17.167,46.14 0,63.645l0 0.006c-17.168,17.504 -45.26,17.504 -62.428,0l-130.004 -124.828c-8.625,6.319 -27.249,35.107 -36.755,50.671l-3.442 5.726c-12.948,21.463 -19.653,41.73 -29.941,67.234 -14.607,36.2 -23.432,79.981 -27.679,119.765l-3.209 40.246 0 0.027 -0.005 0.044 -0.006 0.217c-0.065,11.126 -4.203,21.328 -11.017,29.169l-0.038 0.038 -0.174 0.196c-7.45,8.597 -18.076,14.291 -30.267,15.21l-0.055 0 -1.104 0.071 -0.038 0 -1.125 0.043 -0.022 0 -0.479 0.006zm-272.151 -541.623l40.191 21.855c33.09,17.059 71.063,45.728 98.97,70.312 19.126,16.842 34.374,36.038 48.974,51.574l0 -0.631 2.148 2.273c21.11,22.127 70.601,92.325 81.189,122.892 10.587,-30.567 60.078,-100.765 81.188,-122.892 15.079,-15.808 30.724,-35.782 50.534,-53.226 27.908,-24.585 65.881,-53.254 98.971,-70.313l40.169 -21.844 -40.169 -21.844c-33.09,-17.059 -71.063,-45.728 -98.971,-70.312 -19.125,-16.842 -34.373,-36.038 -48.974,-51.574l0 0.609 -2.148 -2.273c-21.11,-22.127 -70.6,-92.325 -81.188,-122.891 -10.587,30.566 -60.078,100.764 -81.188,122.891 -15.079,15.808 -30.724,35.782 -50.535,53.227 -27.907,24.585 -65.88,53.253 -98.97,70.312l-40.191 21.855z"/>
   <circle class="fil0" cx="433.688" cy="174.718" r="45.684"/>
   <circle class="fil0" cx="200.591" cy="400.598" r="45.684"/>
   <circle class="fil0" cx="433.688" cy="174.718" r="45.684"/>
   <circle class="fil0" cx="200.591" cy="400.598" r="45.684"/>
   <circle class="fil0" cx="733.296" cy="174.729" r="45.684"/>
   <circle class="fil0" cx="966.392" cy="400.609" r="45.684"/>
   <circle class="fil0" cx="733.296" cy="174.729" r="45.684"/>
   <circle class="fil0" cx="966.392" cy="400.609" r="45.684"/>
   <circle class="fil0" cx="433.688" cy="943.216" r="45.684"/>
   <circle class="fil0" cx="200.591" cy="717.336" r="45.684"/>
   <circle class="fil0" cx="433.688" cy="943.216" r="45.684"/>
   <circle class="fil0" cx="200.591" cy="717.336" r="45.684"/>
   <circle class="fil0" cx="733.296" cy="943.205" r="45.684"/>
   <circle class="fil0" cx="966.392" cy="717.325" r="45.684"/>
   <circle class="fil0" cx="733.296" cy="943.205" r="45.684"/>
   <circle class="fil0" cx="966.392" cy="717.325" r="45.684"/>
  </g>
  <path class="fil1" d="M2673.742 533.785l-162.78 0 0 -161.861 169.034 0c71.382,0 130.541,81.922 63.478,136.929 -14.406,11.811 -42.037,24.932 -69.732,24.932zm0.948 203.457l78.016 90.715c41.478,41.706 94.612,28.195 150.015,28.195l0 -91.757c-85.38,0 -63.807,3.851 -110.232,-38.513l-98.223 -110.862c64.672,1.536 104.82,-18.272 146.556,-67.312 95.097,-111.764 -5.156,-268.239 -163.955,-268.239l-265.156 0 0 341.657 0.343 0 -0.705 237.313 102.545 0 0.706 -237.313 2.753 0 62.556 0 94.781 116.116z"/>
  <path class="fil1" d="M1354.523 855.03c1.135,0.446 2.506,0.689 4.161,0.689l414.902 0c6.686,0 8.703,-2.021 8.703,-8.703l0 -89.946 -333.661 0 0 -142.17 255.325 0c6.686,0 8.704,-2.018 8.704,-8.704l0 -81.238c0,-6.685 -2.018,-8.704 -8.704,-8.704l-255.325 0 0 -118.96c0,-14.971 12.077,-23.211 26.112,-23.211l307.549 0 0 -95.745 -427.766 0 0 576.692z"/>
  <path class="fil1" d="M3227.323 384.151l15.811 55.84 54.889 176.95 -122.591 0.012 -33.977 0.304 71.15 -232.907 14.718 -0.199zm-128.908 23.47c-0.644,5.304 -2.287,11.53 -4.802,18.776 -3.694,10.638 -7.636,22.351 -11.759,34.847l-121.67 393.965 104.641 0 44.847 -143.535 218.243 0 44.847 143.535 104.643 0c-1.105,-12.735 -16.457,-56.123 -20.932,-71.767 -6.609,-23.122 -13.971,-46.873 -22.047,-70.689l-133.417 -428.807 -164.4 0 -38.194 123.675z"/>
  <path class="fil1" d="M3550.046 408.726l0 110.166 0 339.145 99.995 0.844 0 -234.491 244.076 0 0 -91.158c0,-6.777 -2.046,-8.822 -8.823,-8.822l-235.253 0 0 -144.095 291.127 0 0 -99.984 -391.122 0 0 128.395z"/>
  <path class="fil1" d="M1975.46 858.287l-107.367 0 0 -579.442 107.367 0 0 243.99 216.167 -243.99 119.752 0 -242.125 273.289c26.194,9.624 48.304,28.77 79.903,66.798l22.327 26.661 0.001 0c2.909,3.324 6.374,7.49 10.266,12.26l55.024 65.705 3.004 4.272c21.172,23.58 41.5,42.503 53.362,42.503l42.344 0 0 88.355c-122.645,0 -122.655,-14.333 -174.28,-76.46l-21.919 -26.665 -0.409 0.003 -87.641 -107.116 -2.348 -2.857 0.01 0c-11.921,-14.513 -30.966,-25.418 -38.92,-25.418l-34.518 0 0 238.112z"/>
  <path class="fil2" d="M1432.258 1213.229l-18.438 0 -43.623 -50.356c-1.613,-1.886 -2.635,-3.17 -2.983,-3.825l-0.323 0 0 54.181 -13.224 0 0 -110.066 13.224 0 0 51.719 0.323 0c0.725,-1.127 1.72,-2.358 2.983,-3.747l42.199 -47.972 16.476 0 -48.435 52.793 51.821 57.273zm82.455 -36.156l-56.928 0c0.214,8.751 2.633,15.511 7.257,20.279 4.623,4.742 10.966,7.126 19.056,7.126 9.085,0 17.417,-2.908 25.051,-8.75l0 11.816c-7.096,5.03 -16.477,7.519 -28.114,7.519 -11.397,0 -20.348,-3.563 -26.852,-10.69 -6.532,-7.152 -9.784,-17.187 -9.784,-30.129 0,-12.236 3.575,-22.192 10.67,-29.894 7.123,-7.703 15.966,-11.554 26.503,-11.554 10.563,0 18.707,3.327 24.486,9.982 5.779,6.628 8.655,15.877 8.655,27.693l0 6.602zm-13.224 -10.663c-0.055,-7.257 -1.855,-12.917 -5.376,-16.978 -3.548,-4.034 -8.467,-6.052 -14.783,-6.052 -6.074,0 -11.262,2.122 -15.509,6.367 -4.247,4.244 -6.881,9.799 -7.875,16.663l43.543 0zm153.841 46.819l-12.902 0 0 -45.142c0,-8.699 -1.397,-14.987 -4.138,-18.864 -2.769,-3.904 -7.392,-5.843 -13.897,-5.843 -5.51,0 -10.214,2.463 -14.057,7.362 -3.871,4.926 -5.805,10.795 -5.805,17.659l0 44.828 -12.902 0 0 -46.662c0,-15.458 -6.129,-23.187 -18.358,-23.187 -5.672,0 -10.321,2.306 -14.004,6.943 -3.682,4.638 -5.51,10.664 -5.51,18.078l0 44.828 -12.928 0 0 -78.6 12.928 0 0 12.445 0.323 0c5.698,-9.536 14.057,-14.278 25.024,-14.278 5.51,0 10.32,1.493 14.406,4.48 4.112,2.986 6.908,6.916 8.44,11.79 5.967,-10.847 14.89,-16.27 26.771,-16.27 17.739,0 26.609,10.663 26.609,31.99l0 48.443zm95.785 -36.156l-56.927 0c0.214,8.751 2.633,15.511 7.257,20.279 4.622,4.742 10.966,7.126 19.056,7.126 9.085,0 17.417,-2.908 25.051,-8.75l0 11.816c-7.096,5.03 -16.477,7.519 -28.115,7.519 -11.396,0 -20.347,-3.563 -26.851,-10.69 -6.532,-7.152 -9.784,-17.187 -9.784,-30.129 0,-12.236 3.575,-22.192 10.67,-29.894 7.123,-7.703 15.966,-11.554 26.503,-11.554 10.563,0 18.707,3.327 24.486,9.982 5.779,6.628 8.654,15.877 8.654,27.693l0 6.602zm-13.223 -10.663c-0.055,-7.257 -1.855,-12.917 -5.376,-16.978 -3.549,-4.034 -8.467,-6.052 -14.783,-6.052 -6.074,0 -11.262,2.122 -15.51,6.367 -4.246,4.244 -6.88,9.799 -7.874,16.663l43.543 0zm106.294 46.819l-12.929 0 0 -44.828c0,-16.689 -6.236,-25.021 -18.734,-25.021 -6.45,0 -11.799,2.358 -16.02,7.1 -4.246,4.743 -6.343,10.716 -6.343,17.921l0 44.828 -12.928 0 0 -78.6 12.928 0 0 13.048 0.323 0c6.074,-9.93 14.89,-14.881 26.448,-14.881 8.816,0 15.562,2.777 20.24,8.331 4.677,5.528 7.015,13.572 7.015,24.052l0 48.05zm68.315 -0.76c-3.037,1.625 -7.069,2.437 -12.041,2.437 -14.138,0 -21.181,-7.677 -21.181,-23.03l0 -46.505 -13.869 0 0 -10.742 13.869 0 0 -19.178 12.902 -4.087 0 23.265 20.32 0 0 10.742 -20.32 0 0 44.304c0,5.267 0.914,9.013 2.769,11.266 1.827,2.253 4.865,3.38 9.139,3.38 3.252,0 6.047,-0.865 8.412,-2.62l0 10.768zm88.608 -35.396l-56.927 0c0.214,8.751 2.633,15.511 7.257,20.279 4.622,4.742 10.965,7.126 19.056,7.126 9.085,0 17.417,-2.908 25.051,-8.75l0 11.816c-7.096,5.03 -16.477,7.519 -28.115,7.519 -11.396,0 -20.347,-3.563 -26.851,-10.69 -6.532,-7.152 -9.784,-17.187 -9.784,-30.129 0,-12.236 3.575,-22.192 10.67,-29.894 7.123,-7.703 15.966,-11.554 26.503,-11.554 10.563,0 18.707,3.327 24.486,9.982 5.779,6.628 8.654,15.877 8.654,27.693l0 6.602zm-13.223 -10.663c-0.055,-7.257 -1.855,-12.917 -5.376,-16.978 -3.549,-4.034 -8.467,-6.052 -14.783,-6.052 -6.075,0 -11.262,2.122 -15.51,6.367 -4.246,4.244 -6.88,9.799 -7.874,16.663l43.543 0zm81.404 -19.047c-2.258,-1.677 -5.51,-2.516 -9.757,-2.516 -5.537,0 -10.133,2.516 -13.842,7.598 -3.682,5.057 -5.537,11.974 -5.537,20.724l0 40.06 -12.928 0 0 -78.6 12.928 0 0 16.192 0.323 0c1.827,-5.528 4.623,-9.825 8.412,-12.943 3.79,-3.091 8.011,-4.637 12.688,-4.637 3.358,0 5.912,0.367 7.713,1.074l0 13.048zm27.192 -32.698c-2.285,0 -4.273,-0.76 -5.886,-2.305 -1.64,-1.52 -2.447,-3.459 -2.447,-5.817 0,-2.358 0.807,-4.323 2.447,-5.868 1.613,-1.572 3.601,-2.358 5.886,-2.358 2.365,0 4.381,0.786 6.047,2.358 1.64,1.545 2.474,3.51 2.474,5.868 0,2.253 -0.834,4.166 -2.474,5.738 -1.666,1.598 -3.682,2.384 -6.047,2.384zm6.316 98.564l-12.928 0 0 -78.6 12.928 0 0 78.6zm90.436 0l-12.929 0 0 -12.288 -0.295 0c-5.618,9.432 -13.896,14.122 -24.808,14.122 -8.037,0 -14.327,-2.07 -18.87,-6.209 -4.541,-4.14 -6.799,-9.642 -6.799,-16.506 0,-14.672 8.87,-23.24 26.609,-25.624l24.163 -3.301c0,-13.362 -5.536,-20.043 -16.61,-20.043 -9.703,0 -18.466,3.223 -26.287,9.668l0 -12.89c7.929,-4.926 17.041,-7.362 27.389,-7.362 18.949,0 28.437,9.772 28.437,29.317l0 51.116zm-12.929 -39.771l-19.432 2.62c-5.994,0.812 -10.509,2.253 -13.547,4.349 -3.038,2.07 -4.569,5.738 -4.569,11.004 0,3.825 1.397,6.969 4.219,9.405 2.796,2.437 6.532,3.642 11.209,3.642 6.396,0 11.692,-2.201 15.858,-6.55 4.193,-4.375 6.262,-9.929 6.262,-16.637l0 -7.833zm110.784 39.771l-12.929 0 0 -44.828c0,-16.689 -6.236,-25.021 -18.734,-25.021 -6.45,0 -11.799,2.358 -16.02,7.1 -4.246,4.743 -6.343,10.716 -6.343,17.921l0 44.828 -12.928 0 0 -78.6 12.928 0 0 13.048 0.323 0c6.074,-9.93 14.89,-14.881 26.448,-14.881 8.816,0 15.562,2.777 20.24,8.331 4.677,5.528 7.015,13.572 7.015,24.052l0 48.05zm136.667 0l-59.831 0 0 -110.066 57.331 0 0 11.659 -44.107 0 0 36.628 40.802 0 0 11.58 -40.802 0 0 38.54 46.607 0 0 11.659zm93.527 0l-18.117 0 -35.586 -37.754 -0.323 0 0 37.754 -12.928 0 0 -116.353 12.928 0 0 73.752 0.323 0 33.839 -35.999 16.934 0 -37.388 37.912 40.318 40.688zm53.479 1.834c-11.908,0 -21.423,-3.668 -28.546,-11.004 -7.095,-7.336 -10.67,-17.082 -10.67,-29.213 0,-13.204 3.709,-23.501 11.101,-30.942 7.418,-7.414 17.417,-11.108 30.023,-11.108 12.014,0 21.395,3.589 28.141,10.82 6.746,7.205 10.106,17.213 10.106,29.999 0,12.55 -3.628,22.584 -10.886,30.13 -7.283,7.545 -17.04,11.318 -29.269,11.318zm0.94 -71.683c-8.279,0 -14.837,2.751 -19.675,8.253 -4.838,5.502 -7.257,13.074 -7.257,22.768 0,9.301 2.446,16.637 7.338,22.008 4.891,5.371 11.423,8.069 19.594,8.069 8.359,0 14.783,-2.646 19.272,-7.912 4.488,-5.266 6.719,-12.759 6.719,-22.48 0,-9.824 -2.231,-17.396 -6.719,-22.715 -4.489,-5.345 -10.913,-7.991 -19.272,-7.991zm133.388 69.849l-12.928 0 0 -44.828c0,-16.689 -6.237,-25.021 -18.734,-25.021 -6.451,0 -11.8,2.358 -16.02,7.1 -4.247,4.743 -6.344,10.716 -6.344,17.921l0 44.828 -12.928 0 0 -78.6 12.928 0 0 13.048 0.324 0c6.074,-9.93 14.889,-14.881 26.447,-14.881 8.817,0 15.563,2.777 20.24,8.331 4.677,5.528 7.015,13.572 7.015,24.052l0 48.05zm64.607 1.834c-11.908,0 -21.423,-3.668 -28.546,-11.004 -7.095,-7.336 -10.67,-17.082 -10.67,-29.213 0,-13.204 3.71,-23.501 11.101,-30.942 7.418,-7.414 17.417,-11.108 30.023,-11.108 12.014,0 21.395,3.589 28.141,10.82 6.747,7.205 10.106,17.213 10.106,29.999 0,12.55 -3.628,22.584 -10.885,30.13 -7.284,7.545 -17.041,11.318 -29.27,11.318zm0.941 -71.683c-8.279,0 -14.838,2.751 -19.676,8.253 -4.838,5.502 -7.257,13.074 -7.257,22.768 0,9.301 2.446,16.637 7.338,22.008 4.891,5.371 11.423,8.069 19.595,8.069 8.358,0 14.783,-2.646 19.271,-7.912 4.488,-5.266 6.72,-12.759 6.72,-22.48 0,-9.824 -2.232,-17.396 -6.72,-22.715 -4.488,-5.345 -10.913,-7.991 -19.271,-7.991zm180.934 69.849l-12.901 0 0 -45.142c0,-8.699 -1.398,-14.987 -4.139,-18.864 -2.769,-3.904 -7.391,-5.843 -13.896,-5.843 -5.511,0 -10.214,2.463 -14.057,7.362 -3.871,4.926 -5.806,10.795 -5.806,17.659l0 44.828 -12.901 0 0 -46.662c0,-15.458 -6.129,-23.187 -18.359,-23.187 -5.671,0 -10.32,2.306 -14.003,6.943 -3.682,4.638 -5.51,10.664 -5.51,18.078l0 44.828 -12.929 0 0 -78.6 12.929 0 0 12.445 0.323 0c5.698,-9.536 14.057,-14.278 25.023,-14.278 5.51,0 10.321,1.493 14.407,4.48 4.112,2.986 6.907,6.916 8.44,11.79 5.967,-10.847 14.89,-16.27 26.771,-16.27 17.738,0 26.608,10.663 26.608,31.99l0 48.443zm37.594 -98.564c-2.284,0 -4.273,-0.76 -5.885,-2.305 -1.641,-1.52 -2.447,-3.459 -2.447,-5.817 0,-2.358 0.806,-4.323 2.447,-5.868 1.612,-1.572 3.601,-2.358 5.885,-2.358 2.366,0 4.382,0.786 6.048,2.358 1.639,1.545 2.473,3.51 2.473,5.868 0,2.253 -0.834,4.166 -2.473,5.738 -1.666,1.598 -3.682,2.384 -6.048,2.384zm6.317 98.564l-12.929 0 0 -78.6 12.929 0 0 78.6zm157.228 0l-18.438 0 -43.623 -50.356c-1.613,-1.886 -2.635,-3.17 -2.984,-3.825l-0.323 0 0 54.181 -13.224 0 0 -110.066 13.224 0 0 51.719 0.323 0c0.726,-1.127 1.721,-2.358 2.984,-3.747l42.199 -47.972 16.476 0 -48.435 52.793 51.821 57.273zm61.838 -65.866c-2.258,-1.677 -5.51,-2.516 -9.757,-2.516 -5.537,0 -10.133,2.516 -13.843,7.598 -3.682,5.057 -5.536,11.974 -5.536,20.724l0 40.06 -12.929 0 0 -78.6 12.929 0 0 16.192 0.323 0c1.827,-5.528 4.622,-9.825 8.412,-12.943 3.79,-3.091 8.01,-4.637 12.687,-4.637 3.359,0 5.913,0.367 7.714,1.074l0 13.048zm85.383 29.71l-56.928 0c0.215,8.751 2.634,15.511 7.257,20.279 4.623,4.742 10.966,7.126 19.056,7.126 9.086,0 17.418,-2.908 25.052,-8.75l0 11.816c-7.096,5.03 -16.477,7.519 -28.115,7.519 -11.397,0 -20.348,-3.563 -26.852,-10.69 -6.532,-7.152 -9.784,-17.187 -9.784,-30.129 0,-12.236 3.576,-22.192 10.671,-29.894 7.122,-7.703 15.966,-11.554 26.503,-11.554 10.562,0 18.707,3.327 24.486,9.982 5.779,6.628 8.654,15.877 8.654,27.693l0 6.602zm-13.224 -10.663c-0.054,-7.257 -1.855,-12.917 -5.375,-16.978 -3.549,-4.034 -8.467,-6.052 -14.784,-6.052 -6.074,0 -11.262,2.122 -15.509,6.367 -4.246,4.244 -6.881,9.799 -7.875,16.663l43.543 0zm97.074 46.819l-12.928 0 0 -12.288 -0.295 0c-5.618,9.432 -13.896,14.122 -24.808,14.122 -8.037,0 -14.327,-2.07 -18.87,-6.209 -4.541,-4.14 -6.799,-9.642 -6.799,-16.506 0,-14.672 8.87,-23.24 26.609,-25.624l24.163 -3.301c0,-13.362 -5.537,-20.043 -16.61,-20.043 -9.703,0 -18.466,3.223 -26.288,9.668l0 -12.89c7.93,-4.926 17.042,-7.362 27.39,-7.362 18.949,0 28.436,9.772 28.436,29.317l0 51.116zm-12.928 -39.771l-19.432 2.62c-5.995,0.812 -10.51,2.253 -13.547,4.349 -3.038,2.07 -4.57,5.738 -4.57,11.004 0,3.825 1.398,6.969 4.22,9.405 2.795,2.437 6.532,3.642 11.209,3.642 6.396,0 11.692,-2.201 15.858,-6.55 4.193,-4.375 6.262,-9.929 6.262,-16.637l0 -7.833zm81.244 39.011c-3.037,1.625 -7.069,2.437 -12.041,2.437 -14.138,0 -21.181,-7.677 -21.181,-23.03l0 -46.505 -13.869 0 0 -10.742 13.869 0 0 -19.178 12.902 -4.087 0 23.265 20.32 0 0 10.742 -20.32 0 0 44.304c0,5.267 0.914,9.013 2.769,11.266 1.827,2.253 4.865,3.38 9.138,3.38 3.253,0 6.048,-0.865 8.413,-2.62l0 10.768zm30.417 -97.804c-2.285,0 -4.273,-0.76 -5.886,-2.305 -1.64,-1.52 -2.447,-3.459 -2.447,-5.817 0,-2.358 0.807,-4.323 2.447,-5.868 1.613,-1.572 3.601,-2.358 5.886,-2.358 2.365,0 4.381,0.786 6.047,2.358 1.64,1.545 2.474,3.51 2.474,5.868 0,2.253 -0.834,4.166 -2.474,5.738 -1.666,1.598 -3.682,2.384 -6.047,2.384zm6.316 98.564l-12.928 0 0 -78.6 12.928 0 0 78.6zm72.561 -105.323c-2.525,-1.363 -5.374,-2.07 -8.6,-2.07 -9.004,0 -13.52,5.554 -13.52,16.663l0 12.13 18.895 0 0 10.742 -18.895 0 0 67.858 -12.848 0 0 -67.858 -13.788 0 0 -10.742 13.788 0 0 -12.733c0,-8.253 2.447,-14.75 7.311,-19.545 4.892,-4.794 10.994,-7.178 18.278,-7.178 3.95,0 7.068,0.471 9.379,1.388l0 11.345zm68.155 -4.743l-54.187 128.327 -12.041 0 54.025 -128.327 12.203 0z"/>
  <path class="fil2" d="M1440.523 1643.261l-17.551 0 -21.087 -30.863c-1.917,-2.856 -3.774,-5.293 -5.6,-7.336 -1.827,-2.018 -3.685,-3.668 -5.571,-4.926 -1.917,-1.284 -3.955,-2.227 -6.141,-2.803 -2.186,-0.603 -4.672,-0.891 -7.428,-0.891l-12.101 0 0 46.819 -14.736 0 0 -110.066 37.56 0c5.481,0 10.573,0.603 15.215,1.808 4.643,1.205 8.686,3.013 12.101,5.476 3.445,2.463 6.111,5.528 8.028,9.17 1.946,3.668 2.905,7.939 2.905,12.864 0,3.825 -0.66,7.362 -1.977,10.559 -1.318,3.196 -3.175,6.052 -5.602,8.541 -2.426,2.515 -5.36,4.663 -8.775,6.419 -3.444,1.755 -7.279,3.144 -11.561,4.113l0 0.288c2.126,0.839 3.953,1.756 5.51,2.804 1.528,1.074 3.026,2.305 4.404,3.746 1.407,1.415 2.815,3.039 4.193,4.873 1.378,1.808 2.905,3.904 4.582,6.315l23.632 33.09zm-75.479 -98.407l0 39.929 20.008 0c3.684,0 7.099,-0.498 10.214,-1.467 3.145,-0.97 5.841,-2.358 8.117,-4.192 2.276,-1.808 4.073,-4.035 5.361,-6.681 1.289,-2.62 1.918,-5.581 1.918,-8.856 0,-5.895 -2.158,-10.48 -6.53,-13.781 -4.344,-3.301 -10.663,-4.952 -18.9,-4.952l-20.188 0z"/>
  <path class="fil2" d="M1514.354 1430.472l-12.602 0 0 -12.288 -0.288 0c-5.476,9.432 -13.545,14.122 -24.182,14.122 -7.834,0 -13.965,-2.07 -18.393,-6.209 -4.427,-4.14 -6.628,-9.642 -6.628,-16.506 0,-14.672 8.646,-23.24 25.938,-25.624l23.553 -3.301c0,-13.362 -5.397,-20.043 -16.191,-20.043 -9.458,0 -18,3.223 -25.624,9.668l0 -12.89c7.729,-4.926 16.611,-7.362 26.698,-7.362 18.471,0 27.719,9.772 27.719,29.317l0 51.116zm-12.602 -39.771l-18.942 2.62c-5.843,0.812 -10.244,2.253 -13.205,4.349 -2.961,2.07 -4.454,5.738 -4.454,11.004 0,3.825 1.362,6.969 4.113,9.405 2.725,2.437 6.367,3.642 10.926,3.642 6.235,0 11.397,-2.201 15.458,-6.55 4.087,-4.375 6.104,-9.929 6.104,-16.637l0 -7.833zm109.921 39.771l-12.602 0 0 -13.362 -0.288 0c-5.843,10.139 -14.856,15.196 -27.039,15.196 -9.851,0 -17.763,-3.511 -23.658,-10.559 -5.921,-7.021 -8.882,-16.61 -8.882,-28.741 0,-12.995 3.275,-23.396 9.825,-31.23 6.55,-7.834 15.275,-11.737 26.174,-11.737 10.794,0 18.654,4.244 23.58,12.733l0.288 0 0 -48.653 12.602 0 0 116.353zm-12.602 -35.527l0 -11.607c0,-6.34 -2.096,-11.711 -6.288,-16.112 -4.192,-4.402 -9.511,-6.603 -15.956,-6.603 -7.676,0 -13.729,2.804 -18.13,8.437 -4.402,5.633 -6.603,13.414 -6.603,23.344 0,9.065 2.123,16.191 6.341,21.457 4.218,5.24 9.903,7.86 17.004,7.86 7.021,0 12.706,-2.541 17.082,-7.598 4.375,-5.056 6.55,-11.475 6.55,-19.178zm100.855 35.527l-12.602 0 0 -12.288 -0.288 0c-5.476,9.432 -13.545,14.122 -24.182,14.122 -7.834,0 -13.965,-2.07 -18.393,-6.209 -4.427,-4.14 -6.628,-9.642 -6.628,-16.506 0,-14.672 8.646,-23.24 25.938,-25.624l23.553 -3.301c0,-13.362 -5.397,-20.043 -16.191,-20.043 -9.458,0 -18,3.223 -25.624,9.668l0 -12.89c7.729,-4.926 16.611,-7.362 26.698,-7.362 18.471,0 27.719,9.772 27.719,29.317l0 51.116zm-12.602 -39.771l-18.942 2.62c-5.843,0.812 -10.244,2.253 -13.205,4.349 -2.961,2.07 -4.454,5.738 -4.454,11.004 0,3.825 1.362,6.969 4.113,9.405 2.725,2.437 6.367,3.642 10.926,3.642 6.235,0 11.397,-2.201 15.458,-6.55 4.087,-4.375 6.104,-9.929 6.104,-16.637l0 -7.833zm108.087 39.771l-12.602 0 0 -44.828c0,-16.689 -6.079,-25.021 -18.261,-25.021 -6.288,0 -11.502,2.358 -15.616,7.1 -4.139,4.743 -6.183,10.716 -6.183,17.921l0 44.828 -12.602 0 0 -78.6 12.602 0 0 13.048 0.315 0c5.921,-9.93 14.514,-14.881 25.78,-14.881 8.594,0 15.17,2.777 19.729,8.331 4.559,5.528 6.838,13.572 6.838,24.052l0 48.05zm133.318 0l-58.321 0 0 -110.066 55.884 0 0 11.659 -42.994 0 0 36.628 39.772 0 0 11.58 -39.772 0 0 38.54 45.431 0 0 11.659zm91.266 0l-17.659 0 -34.688 -37.754 -0.315 0 0 37.754 -12.602 0 0 -116.353 12.602 0 0 73.752 0.315 0 32.985 -35.999 16.506 0 -36.444 37.912 39.3 40.688zm52.229 1.834c-11.607,0 -20.882,-3.668 -27.825,-11.004 -6.916,-7.336 -10.401,-17.082 -10.401,-29.213 0,-13.204 3.616,-23.501 10.821,-30.942 7.231,-7.414 16.977,-11.108 29.265,-11.108 11.711,0 20.855,3.589 27.431,10.82 6.576,7.205 9.851,17.213 9.851,29.999 0,12.55 -3.537,22.584 -10.611,30.13 -7.1,7.545 -16.61,11.318 -28.531,11.318zm0.917 -71.683c-8.07,0 -14.463,2.751 -19.179,8.253 -4.716,5.502 -7.074,13.074 -7.074,22.768 0,9.301 2.385,16.637 7.153,22.008 4.768,5.371 11.135,8.069 19.1,8.069 8.148,0 14.41,-2.646 18.785,-7.912 4.375,-5.266 6.55,-12.759 6.55,-22.48 0,-9.824 -2.175,-17.396 -6.55,-22.715 -4.375,-5.345 -10.637,-7.991 -18.785,-7.991zm130.121 69.849l-12.602 0 0 -44.828c0,-16.689 -6.079,-25.021 -18.261,-25.021 -6.288,0 -11.502,2.358 -15.616,7.1 -4.139,4.743 -6.183,10.716 -6.183,17.921l0 44.828 -12.602 0 0 -78.6 12.602 0 0 13.048 0.315 0c5.921,-9.93 14.514,-14.881 25.78,-14.881 8.594,0 15.17,2.777 19.729,8.331 4.559,5.528 6.838,13.572 6.838,24.052l0 48.05zm63.076 1.834c-11.607,0 -20.882,-3.668 -27.825,-11.004 -6.916,-7.336 -10.401,-17.082 -10.401,-29.213 0,-13.204 3.616,-23.501 10.821,-30.942 7.231,-7.414 16.977,-11.108 29.265,-11.108 11.711,0 20.855,3.589 27.431,10.82 6.576,7.205 9.851,17.213 9.851,29.999 0,12.55 -3.537,22.584 -10.611,30.13 -7.1,7.545 -16.61,11.318 -28.531,11.318zm0.917 -71.683c-8.07,0 -14.463,2.751 -19.179,8.253 -4.716,5.502 -7.074,13.074 -7.074,22.768 0,9.301 2.385,16.637 7.153,22.008 4.768,5.371 11.135,8.069 19.1,8.069 8.148,0 14.41,-2.646 18.785,-7.912 4.375,-5.266 6.55,-12.759 6.55,-22.48 0,-9.824 -2.175,-17.396 -6.55,-22.715 -4.375,-5.345 -10.637,-7.991 -18.785,-7.991zm176.468 69.849l-12.576 0 0 -45.142c0,-8.699 -1.362,-14.987 -4.034,-18.864 -2.699,-3.904 -7.205,-5.843 -13.546,-5.843 -5.371,0 -9.956,2.463 -13.702,7.362 -3.773,4.926 -5.659,10.795 -5.659,17.659l0 44.828 -12.576 0 0 -46.662c0,-15.458 -5.974,-23.187 -17.895,-23.187 -5.528,0 -10.06,2.306 -13.65,6.943 -3.589,4.638 -5.371,10.664 -5.371,18.078l0 44.828 -12.602 0 0 -78.6 12.602 0 0 12.445 0.315 0c5.554,-9.536 13.702,-14.278 24.392,-14.278 5.371,0 10.06,1.493 14.043,4.48 4.008,2.986 6.733,6.916 8.227,11.79 5.816,-10.847 14.514,-16.27 26.095,-16.27 17.291,0 25.937,10.663 25.937,31.99l0 48.443zm36.745 -98.564c-2.227,0 -4.165,-0.76 -5.737,-2.305 -1.599,-1.52 -2.385,-3.459 -2.385,-5.817 0,-2.358 0.786,-4.323 2.385,-5.868 1.572,-1.572 3.51,-2.358 5.737,-2.358 2.306,0 4.271,0.786 5.895,2.358 1.598,1.545 2.411,3.51 2.411,5.868 0,2.253 -0.813,4.166 -2.411,5.738 -1.624,1.598 -3.589,2.384 -5.895,2.384zm6.157 98.564l-12.602 0 0 -78.6 12.602 0 0 78.6z"/>
  <path class="fil2" d="M1352.111 1429.124l0 -110.065 37.924 0c11.519,0 20.691,2.332 27.418,6.969 6.76,4.664 10.155,10.742 10.155,18.209 0,6.236 -2.063,11.659 -6.157,16.27 -4.093,4.611 -9.71,7.886 -16.914,9.825l0 0.314c8.981,0.865 16.185,3.668 21.58,8.384 5.395,4.742 8.093,10.899 8.093,18.471 0,9.406 -4.095,17.03 -12.283,22.872 -8.187,5.843 -18.501,8.751 -30.973,8.751l-38.843 0zm15.613 -98.406l0 35.553 15.995 0c8.537,0 15.265,-1.703 20.183,-5.109 4.888,-3.406 7.331,-8.2 7.331,-14.41 0,-10.689 -8.505,-16.034 -25.578,-16.034l-17.931 0zm0 47.133l0 39.614 21.2 0c9.17,0 16.279,-1.808 21.326,-5.371 5.077,-3.589 7.584,-8.515 7.584,-14.75 0,-12.995 -10.727,-19.493 -32.179,-19.493l-17.931 0z"/>
  <path class="fil2" d="M1517.328 1606.793l-55.491 0c0.209,8.751 2.567,15.511 7.074,20.279 4.506,4.742 10.689,7.126 18.575,7.126 8.856,0 16.978,-2.908 24.419,-8.75l0 11.816c-6.917,5.03 -16.061,7.519 -27.405,7.519 -11.109,0 -19.834,-3.563 -26.174,-10.69 -6.367,-7.152 -9.537,-17.187 -9.537,-30.129 0,-12.236 3.485,-22.192 10.401,-29.894 6.943,-7.703 15.563,-11.554 25.834,-11.554 10.296,0 18.235,3.327 23.868,9.982 5.633,6.628 8.436,15.877 8.436,27.693l0 6.602zm-12.89 -10.663c-0.053,-7.257 -1.808,-12.917 -5.24,-16.978 -3.459,-4.034 -8.253,-6.052 -14.41,-6.052 -5.921,0 -10.978,2.122 -15.118,6.367 -4.139,4.244 -6.707,9.799 -7.676,16.663l42.444 0zm51.264 35.448l-0.315 0 0 47.527 -12.602 0 0 -114.756 12.602 0 0 13.808 0.315 0c6.183,-10.428 15.248,-15.641 27.169,-15.641 10.113,0 18.025,3.51 23.711,10.558 5.685,7.022 8.515,16.454 8.515,28.27 0,13.152 -3.197,23.684 -9.589,31.597 -6.393,7.886 -15.144,11.842 -26.253,11.842 -10.191,0 -18.025,-4.402 -23.553,-13.205zm-0.315 -31.702l0 10.978c0,6.498 2.096,12.026 6.341,16.558 4.218,4.533 9.563,6.786 16.06,6.786 7.624,0 13.598,-2.908 17.921,-8.75 4.323,-5.843 6.497,-13.939 6.497,-24.34 0,-8.751 -2.017,-15.589 -6.078,-20.567 -4.035,-4.952 -9.511,-7.441 -16.401,-7.441 -7.336,0 -13.205,2.542 -17.659,7.624 -4.454,5.109 -6.681,11.476 -6.681,19.152zm149.776 43.073l-12.576 0 0 -12.445 -0.314 0c-5.214,9.537 -13.31,14.279 -24.261,14.279 -18.733,0 -28.087,-11.135 -28.087,-33.457l0 -46.977 12.498 0 0 44.986c0,16.584 6.366,24.863 19.047,24.863 6.131,0 11.187,-2.253 15.17,-6.786 3.956,-4.532 5.947,-10.453 5.947,-17.789l0 -45.274 12.576 0 0 78.6zm44.741 -11.371l-0.315 0 0 11.371 -12.602 0 0 -116.353 12.602 0 0 51.561 0.315 0c6.183,-10.428 15.248,-15.641 27.169,-15.641 10.061,0 17.973,3.51 23.658,10.558 5.712,7.022 8.568,16.454 8.568,28.27 0,13.152 -3.197,23.684 -9.589,31.597 -6.393,7.886 -15.144,11.842 -26.253,11.842 -10.401,0 -18.235,-4.402 -23.553,-13.205zm-0.315 -31.702l0 10.978c0,6.498 2.096,12.026 6.341,16.558 4.218,4.533 9.563,6.786 16.06,6.786 7.624,0 13.598,-2.908 17.921,-8.75 4.323,-5.843 6.497,-13.939 6.497,-24.34 0,-8.751 -2.017,-15.589 -6.078,-20.567 -4.035,-4.952 -9.511,-7.441 -16.401,-7.441 -7.336,0 -13.205,2.542 -17.659,7.624 -4.454,5.109 -6.681,11.476 -6.681,19.152zm98.817 43.073l-12.602 0 0 -116.353 12.602 0 0 116.353zm38.321 -98.564c-2.227,0 -4.165,-0.76 -5.737,-2.305 -1.599,-1.52 -2.385,-3.459 -2.385,-5.817 0,-2.358 0.786,-4.323 2.385,-5.868 1.572,-1.572 3.51,-2.358 5.737,-2.358 2.306,0 4.271,0.786 5.895,2.358 1.598,1.545 2.411,3.51 2.411,5.868 0,2.253 -0.813,4.166 -2.411,5.738 -1.624,1.598 -3.589,2.384 -5.895,2.384zm6.157 98.564l-12.602 0 0 -78.6 12.602 0 0 78.6zm97.14 0l-17.659 0 -34.688 -37.754 -0.315 0 0 37.754 -12.602 0 0 -116.353 12.602 0 0 73.752 0.315 0 32.985 -35.999 16.506 0 -36.444 37.912 39.3 40.688zm76.94 0l-12.89 0 0 -110.066 12.89 0 0 110.066zm98.922 0l-12.602 0 0 -44.828c0,-16.689 -6.079,-25.021 -18.261,-25.021 -6.288,0 -11.502,2.358 -15.616,7.1 -4.139,4.743 -6.183,10.716 -6.183,17.921l0 44.828 -12.602 0 0 -78.6 12.602 0 0 13.048 0.315 0c5.921,-9.93 14.514,-14.881 25.78,-14.881 8.594,0 15.17,2.777 19.729,8.331 4.559,5.528 6.838,13.572 6.838,24.052l0 48.05zm97.219 0l-12.602 0 0 -13.362 -0.288 0c-5.843,10.139 -14.856,15.196 -27.039,15.196 -9.851,0 -17.763,-3.511 -23.658,-10.559 -5.921,-7.021 -8.882,-16.61 -8.882,-28.741 0,-12.995 3.275,-23.396 9.825,-31.23 6.55,-7.834 15.275,-11.737 26.174,-11.737 10.794,0 18.654,4.244 23.58,12.733l0.288 0 0 -48.653 12.602 0 0 116.353zm-12.602 -35.527l0 -11.607c0,-6.34 -2.096,-11.711 -6.288,-16.112 -4.192,-4.402 -9.511,-6.603 -15.956,-6.603 -7.676,0 -13.729,2.804 -18.13,8.437 -4.402,5.633 -6.603,13.414 -6.603,23.344 0,9.065 2.123,16.191 6.341,21.457 4.218,5.24 9.903,7.86 17.004,7.86 7.021,0 12.706,-2.541 17.082,-7.598 4.375,-5.056 6.55,-11.475 6.55,-19.178zm77.333 37.361c-11.607,0 -20.882,-3.668 -27.825,-11.004 -6.916,-7.336 -10.401,-17.082 -10.401,-29.213 0,-13.204 3.616,-23.501 10.821,-30.942 7.231,-7.414 16.977,-11.108 29.265,-11.108 11.711,0 20.855,3.589 27.431,10.82 6.576,7.205 9.851,17.213 9.851,29.999 0,12.55 -3.537,22.584 -10.611,30.13 -7.1,7.545 -16.61,11.318 -28.531,11.318zm0.917 -71.683c-8.07,0 -14.463,2.751 -19.179,8.253 -4.716,5.502 -7.074,13.074 -7.074,22.768 0,9.301 2.385,16.637 7.153,22.008 4.768,5.371 11.135,8.069 19.1,8.069 8.148,0 14.41,-2.646 18.785,-7.912 4.375,-5.266 6.55,-12.759 6.55,-22.48 0,-9.824 -2.175,-17.396 -6.55,-22.715 -4.375,-5.345 -10.637,-7.991 -18.785,-7.991zm130.021 69.849l-12.602 0 0 -44.828c0,-16.689 -6.079,-25.021 -18.261,-25.021 -6.288,0 -11.502,2.358 -15.616,7.1 -4.139,4.743 -6.183,10.716 -6.183,17.921l0 44.828 -12.602 0 0 -78.6 12.602 0 0 13.048 0.315 0c5.921,-9.93 14.514,-14.881 25.78,-14.881 8.594,0 15.17,2.777 19.729,8.331 4.559,5.528 6.838,13.572 6.838,24.052l0 48.05zm93.289 -36.156l-55.491 0c0.209,8.751 2.567,15.511 7.074,20.279 4.506,4.742 10.689,7.126 18.575,7.126 8.856,0 16.978,-2.908 24.419,-8.75l0 11.816c-6.917,5.03 -16.061,7.519 -27.405,7.519 -11.109,0 -19.834,-3.563 -26.174,-10.69 -6.367,-7.152 -9.537,-17.187 -9.537,-30.129 0,-12.236 3.485,-22.192 10.401,-29.894 6.943,-7.703 15.563,-11.554 25.834,-11.554 10.296,0 18.235,3.327 23.868,9.982 5.633,6.628 8.436,15.877 8.436,27.693l0 6.602zm-12.89 -10.663c-0.053,-7.257 -1.808,-12.917 -5.24,-16.978 -3.459,-4.034 -8.253,-6.052 -14.41,-6.052 -5.921,0 -10.978,2.122 -15.118,6.367 -4.139,4.244 -6.707,9.799 -7.676,16.663l42.444 0zm33.605 43.989l0 -13.519c6.838,5.057 14.41,7.598 22.637,7.598 11.056,0 16.584,-3.694 16.584,-11.056 0,-2.096 -0.471,-3.878 -1.415,-5.319 -0.969,-1.467 -2.227,-2.751 -3.851,-3.877 -1.598,-1.127 -3.511,-2.149 -5.685,-3.039 -2.175,-0.891 -4.507,-1.834 -7.022,-2.804 -3.485,-1.388 -6.524,-2.777 -9.17,-4.192 -2.62,-1.388 -4.821,-2.987 -6.602,-4.742 -1.756,-1.782 -3.092,-3.773 -3.983,-6.026 -0.89,-2.253 -1.336,-4.899 -1.336,-7.912 0,-3.694 0.839,-6.943 2.515,-9.799 1.703,-2.83 3.957,-5.214 6.76,-7.126 2.829,-1.913 6.026,-3.38 9.641,-4.349 3.59,-0.97 7.336,-1.441 11.162,-1.441 6.812,0 12.89,1.179 18.261,3.51l0 12.76c-5.764,-3.799 -12.419,-5.686 -19.938,-5.686 -2.358,0 -4.48,0.262 -6.393,0.812 -1.886,0.524 -3.511,1.284 -4.873,2.254 -1.336,0.969 -2.384,2.148 -3.144,3.484 -0.734,1.363 -1.101,2.856 -1.101,4.507 0,2.043 0.367,3.746 1.101,5.135 0.76,1.388 1.834,2.62 3.275,3.694 1.415,1.074 3.17,2.044 5.214,2.908 2.043,0.865 4.375,1.808 6.995,2.83 3.458,1.336 6.602,2.698 9.353,4.113 2.751,1.415 5.109,2.987 7.074,4.768 1.939,1.756 3.432,3.799 4.48,6.105 1.048,2.306 1.572,5.03 1.572,8.201 0,3.903 -0.864,7.283 -2.567,10.139 -1.729,2.856 -4.009,5.24 -6.865,7.126 -2.882,1.913 -6.183,3.301 -9.903,4.245 -3.747,0.917 -7.65,1.362 -11.764,1.362 -8.069,0 -15.091,-1.546 -21.012,-4.664zm84.302 -95.734c-2.227,0 -4.165,-0.76 -5.737,-2.305 -1.599,-1.52 -2.385,-3.459 -2.385,-5.817 0,-2.358 0.786,-4.323 2.385,-5.868 1.572,-1.572 3.51,-2.358 5.737,-2.358 2.306,0 4.271,0.786 5.895,2.358 1.598,1.545 2.411,3.51 2.411,5.868 0,2.253 -0.813,4.166 -2.411,5.738 -1.624,1.598 -3.589,2.384 -5.895,2.384zm6.157 98.564l-12.602 0 0 -78.6 12.602 0 0 78.6zm88.153 0l-12.602 0 0 -12.288 -0.288 0c-5.476,9.432 -13.545,14.122 -24.182,14.122 -7.834,0 -13.965,-2.07 -18.393,-6.209 -4.427,-4.14 -6.628,-9.642 -6.628,-16.506 0,-14.672 8.646,-23.24 25.938,-25.624l23.553 -3.301c0,-13.362 -5.397,-20.043 -16.191,-20.043 -9.458,0 -18,3.223 -25.624,9.668l0 -12.89c7.729,-4.926 16.611,-7.362 26.698,-7.362 18.471,0 27.719,9.772 27.719,29.317l0 51.116zm-12.602 -39.771l-18.942 2.62c-5.843,0.812 -10.244,2.253 -13.205,4.349 -2.961,2.07 -4.454,5.738 -4.454,11.004 0,3.825 1.362,6.969 4.113,9.405 2.725,2.437 6.367,3.642 10.926,3.642 6.235,0 11.397,-2.201 15.458,-6.55 4.087,-4.375 6.104,-9.929 6.104,-16.637l0 -7.833z"/>
  <path class="fil2" d="M2639.225 1430.918l-17.973 0 -42.522 -50.356c-1.572,-1.886 -2.568,-3.17 -2.908,-3.825l-0.315 0 0 54.181 -12.89 0 0 -110.066 12.89 0 0 51.719 0.315 0c0.707,-1.127 1.677,-2.358 2.908,-3.747l41.134 -47.972 16.06 0 -47.212 52.793 50.513 57.273zm65.654 -65.866c-2.201,-1.677 -5.371,-2.516 -9.511,-2.516 -5.397,0 -9.877,2.516 -13.493,7.598 -3.589,5.057 -5.397,11.974 -5.397,20.724l0 40.06 -12.602 0 0 -78.6 12.602 0 0 16.192 0.315 0c1.781,-5.528 4.506,-9.825 8.2,-12.943 3.694,-3.091 7.808,-4.637 12.367,-4.637 3.274,0 5.763,0.367 7.519,1.074l0 13.048zm88.605 29.71l-55.491 0c0.209,8.751 2.567,15.511 7.074,20.279 4.506,4.742 10.689,7.126 18.575,7.126 8.856,0 16.978,-2.908 24.419,-8.75l0 11.816c-6.917,5.03 -16.061,7.519 -27.405,7.519 -11.109,0 -19.834,-3.563 -26.174,-10.69 -6.367,-7.152 -9.537,-17.187 -9.537,-30.129 0,-12.236 3.485,-22.192 10.401,-29.894 6.943,-7.703 15.563,-11.554 25.834,-11.554 10.296,0 18.235,3.327 23.868,9.982 5.633,6.628 8.436,15.877 8.436,27.693l0 6.602zm-12.89 -10.663c-0.053,-7.257 -1.808,-12.917 -5.24,-16.978 -3.459,-4.034 -8.253,-6.052 -14.41,-6.052 -5.921,0 -10.978,2.122 -15.118,6.367 -4.139,4.244 -6.707,9.799 -7.676,16.663l42.444 0zm100.001 46.819l-12.602 0 0 -12.288 -0.288 0c-5.476,9.432 -13.545,14.122 -24.182,14.122 -7.834,0 -13.965,-2.07 -18.393,-6.209 -4.427,-4.14 -6.628,-9.642 -6.628,-16.506 0,-14.672 8.646,-23.24 25.938,-25.624l23.553 -3.301c0,-13.362 -5.397,-20.043 -16.191,-20.043 -9.458,0 -18,3.223 -25.624,9.668l0 -12.89c7.729,-4.926 16.611,-7.362 26.698,-7.362 18.471,0 27.719,9.772 27.719,29.317l0 51.116zm-12.602 -39.771l-18.942 2.62c-5.843,0.812 -10.244,2.253 -13.205,4.349 -2.961,2.07 -4.454,5.738 -4.454,11.004 0,3.825 1.362,6.969 4.113,9.405 2.725,2.437 6.367,3.642 10.926,3.642 6.235,0 11.397,-2.201 15.458,-6.55 4.087,-4.375 6.104,-9.929 6.104,-16.637l0 -7.833zm84.57 39.011c-2.96,1.625 -6.89,2.437 -11.737,2.437 -13.781,0 -20.646,-7.677 -20.646,-23.03l0 -46.505 -13.519 0 0 -10.742 13.519 0 0 -19.178 12.576 -4.087 0 23.265 19.807 0 0 10.742 -19.807 0 0 44.304c0,5.267 0.891,9.013 2.699,11.266 1.781,2.253 4.742,3.38 8.908,3.38 3.17,0 5.895,-0.865 8.2,-2.62l0 10.768zm35.026 -97.804c-2.227,0 -4.165,-0.76 -5.737,-2.305 -1.599,-1.52 -2.385,-3.459 -2.385,-5.817 0,-2.358 0.786,-4.323 2.385,-5.868 1.572,-1.572 3.51,-2.358 5.737,-2.358 2.306,0 4.271,0.786 5.895,2.358 1.598,1.545 2.411,3.51 2.411,5.868 0,2.253 -0.813,4.166 -2.411,5.738 -1.624,1.598 -3.589,2.384 -5.895,2.384zm6.157 98.564l-12.602 0 0 -78.6 12.602 0 0 78.6zm76.107 -105.323c-2.462,-1.363 -5.239,-2.07 -8.383,-2.07 -8.777,0 -13.179,5.554 -13.179,16.663l0 12.13 18.418 0 0 10.742 -18.418 0 0 67.858 -12.524 0 0 -67.858 -13.44 0 0 -10.742 13.44 0 0 -12.733c0,-8.253 2.385,-14.75 7.127,-19.545 4.768,-4.794 10.716,-7.178 17.816,-7.178 3.851,0 6.89,0.471 9.143,1.388l0 11.345z"/>
 </g>
</svg>
